<mxfile host="Electron" modified="2023-11-28T11:38:00.662Z" agent="Mozilla/5.0 (Windows NT 10.0; Win64; x64) AppleWebKit/537.36 (KHTML, like Gecko) draw.io/22.1.2 Chrome/114.0.5735.289 Electron/25.9.4 Safari/537.36" etag="ObouejkZnaZgyqZVjK-Q" version="22.1.2" type="device">
  <diagram name="Page-1" id="BnNoL0yYnqkh4PuqiwpF">
    <mxGraphModel dx="1036" dy="606" grid="1" gridSize="10" guides="1" tooltips="1" connect="1" arrows="1" fold="1" page="1" pageScale="1" pageWidth="850" pageHeight="1100" math="0" shadow="0">
      <root>
        <mxCell id="0" />
        <mxCell id="1" parent="0" />
        <mxCell id="i0SI2Bxe1FI0I7ja2QHg-7" value="" style="ellipse;shape=cloud;whiteSpace=wrap;html=1;fillColor=#dae8fc;strokeColor=#6c8ebf;" vertex="1" parent="1">
          <mxGeometry y="10" width="386" height="230" as="geometry" />
        </mxCell>
        <mxCell id="i0SI2Bxe1FI0I7ja2QHg-6" value="" style="ellipse;shape=cloud;whiteSpace=wrap;html=1;fillColor=#fff2cc;strokeColor=#d6b656;" vertex="1" parent="1">
          <mxGeometry x="250" y="176.5" width="540" height="280" as="geometry" />
        </mxCell>
        <mxCell id="i0SI2Bxe1FI0I7ja2QHg-1" value="" style="shape=mxgraph.cisco.routers.router;sketch=0;html=1;pointerEvents=1;dashed=0;fillColor=#036897;strokeColor=#ffffff;strokeWidth=2;verticalLabelPosition=bottom;verticalAlign=top;align=center;outlineConnect=0;" vertex="1" parent="1">
          <mxGeometry x="360" y="290" width="78" height="53" as="geometry" />
        </mxCell>
        <mxCell id="i0SI2Bxe1FI0I7ja2QHg-2" value="" style="shape=mxgraph.cisco.routers.router;sketch=0;html=1;pointerEvents=1;dashed=0;fillColor=#036897;strokeColor=#ffffff;strokeWidth=2;verticalLabelPosition=bottom;verticalAlign=top;align=center;outlineConnect=0;" vertex="1" parent="1">
          <mxGeometry x="640" y="290" width="78" height="53" as="geometry" />
        </mxCell>
        <mxCell id="i0SI2Bxe1FI0I7ja2QHg-3" value="" style="shape=mxgraph.cisco.routers.router;sketch=0;html=1;pointerEvents=1;dashed=0;fillColor=#036897;strokeColor=#ffffff;strokeWidth=2;verticalLabelPosition=bottom;verticalAlign=top;align=center;outlineConnect=0;" vertex="1" parent="1">
          <mxGeometry x="160" y="123.5" width="78" height="53" as="geometry" />
        </mxCell>
        <mxCell id="i0SI2Bxe1FI0I7ja2QHg-4" value="" style="endArrow=none;html=1;rounded=0;" edge="1" parent="1" source="i0SI2Bxe1FI0I7ja2QHg-1" target="i0SI2Bxe1FI0I7ja2QHg-3">
          <mxGeometry width="50" height="50" relative="1" as="geometry">
            <mxPoint x="400" y="340" as="sourcePoint" />
            <mxPoint x="450" y="290" as="targetPoint" />
          </mxGeometry>
        </mxCell>
        <mxCell id="i0SI2Bxe1FI0I7ja2QHg-5" value="" style="endArrow=none;html=1;rounded=0;" edge="1" parent="1" source="i0SI2Bxe1FI0I7ja2QHg-2" target="i0SI2Bxe1FI0I7ja2QHg-1">
          <mxGeometry width="50" height="50" relative="1" as="geometry">
            <mxPoint x="400" y="340" as="sourcePoint" />
            <mxPoint x="450" y="290" as="targetPoint" />
          </mxGeometry>
        </mxCell>
        <mxCell id="i0SI2Bxe1FI0I7ja2QHg-9" value="&lt;font style=&quot;font-size: 20px;&quot;&gt;AS 65000&lt;/font&gt;" style="text;html=1;align=center;verticalAlign=middle;resizable=0;points=[];autosize=1;strokeColor=none;fillColor=none;" vertex="1" parent="1">
          <mxGeometry x="144" y="70" width="110" height="40" as="geometry" />
        </mxCell>
        <mxCell id="i0SI2Bxe1FI0I7ja2QHg-10" value="&lt;font style=&quot;font-size: 20px;&quot;&gt;AS 65001&lt;/font&gt;" style="text;html=1;align=center;verticalAlign=middle;resizable=0;points=[];autosize=1;strokeColor=none;fillColor=none;" vertex="1" parent="1">
          <mxGeometry x="480" y="240" width="110" height="40" as="geometry" />
        </mxCell>
        <mxCell id="i0SI2Bxe1FI0I7ja2QHg-11" value="&lt;font style=&quot;font-size: 16px;&quot;&gt;R1&lt;/font&gt;" style="text;html=1;align=center;verticalAlign=middle;resizable=0;points=[];autosize=1;strokeColor=none;fillColor=none;" vertex="1" parent="1">
          <mxGeometry x="179" y="147.5" width="40" height="30" as="geometry" />
        </mxCell>
        <mxCell id="i0SI2Bxe1FI0I7ja2QHg-12" value="&lt;font style=&quot;font-size: 16px;&quot;&gt;R2&lt;/font&gt;" style="text;html=1;align=center;verticalAlign=middle;resizable=0;points=[];autosize=1;strokeColor=none;fillColor=none;" vertex="1" parent="1">
          <mxGeometry x="379" y="316" width="40" height="30" as="geometry" />
        </mxCell>
        <mxCell id="i0SI2Bxe1FI0I7ja2QHg-13" value="&lt;font style=&quot;font-size: 16px;&quot;&gt;R3&lt;/font&gt;" style="text;html=1;align=center;verticalAlign=middle;resizable=0;points=[];autosize=1;strokeColor=none;fillColor=none;" vertex="1" parent="1">
          <mxGeometry x="659" y="316" width="40" height="30" as="geometry" />
        </mxCell>
        <mxCell id="i0SI2Bxe1FI0I7ja2QHg-14" value="&lt;font style=&quot;font-size: 14px;&quot;&gt;123.0.0.0/24&lt;/font&gt;" style="text;html=1;align=center;verticalAlign=middle;resizable=0;points=[];autosize=1;strokeColor=none;fillColor=none;" vertex="1" parent="1">
          <mxGeometry x="279" y="210" width="100" height="30" as="geometry" />
        </mxCell>
        <mxCell id="i0SI2Bxe1FI0I7ja2QHg-15" value="&lt;font style=&quot;font-size: 14px;&quot;&gt;192.168.1/24&lt;/font&gt;" style="text;html=1;align=center;verticalAlign=middle;resizable=0;points=[];autosize=1;strokeColor=none;fillColor=none;" vertex="1" parent="1">
          <mxGeometry x="475" y="286" width="110" height="30" as="geometry" />
        </mxCell>
        <mxCell id="i0SI2Bxe1FI0I7ja2QHg-16" value="&lt;font style=&quot;font-size: 14px;&quot;&gt;Lo0 1.1.1.1/24&lt;/font&gt;" style="text;html=1;align=center;verticalAlign=middle;resizable=0;points=[];autosize=1;strokeColor=none;fillColor=none;" vertex="1" parent="1">
          <mxGeometry x="50" y="135" width="110" height="30" as="geometry" />
        </mxCell>
      </root>
    </mxGraphModel>
  </diagram>
</mxfile>
